<mxfile host="app.diagrams.net" modified="2024-02-14T22:15:47.676Z" agent="Mozilla/5.0 (Windows NT 10.0; Win64; x64) AppleWebKit/537.36 (KHTML, like Gecko) Chrome/121.0.0.0 Safari/537.36" etag="OtghAqNmCB4F1rU7UK65" version="23.1.4" type="google">
  <diagram name="Page-1" id="drA90TyfDnVSGl1tM9f_">
    <mxGraphModel grid="1" page="1" gridSize="10" guides="1" tooltips="1" connect="1" arrows="1" fold="1" pageScale="1" pageWidth="827" pageHeight="1169" math="0" shadow="0">
      <root>
        <mxCell id="0" />
        <mxCell id="1" parent="0" />
        <mxCell id="EFbFeK8T_ey6uqOHCIm2-2" value="&lt;font style=&quot;font-size: 18px;&quot;&gt;User&lt;/font&gt;" style="rounded=0;whiteSpace=wrap;html=1;" vertex="1" parent="1">
          <mxGeometry x="40" y="245" width="120" height="60" as="geometry" />
        </mxCell>
        <mxCell id="EFbFeK8T_ey6uqOHCIm2-3" value="&lt;font style=&quot;font-size: 18px;&quot;&gt;Admin&lt;/font&gt;" style="rounded=0;whiteSpace=wrap;html=1;" vertex="1" parent="1">
          <mxGeometry x="670" y="245" width="120" height="60" as="geometry" />
        </mxCell>
        <mxCell id="EFbFeK8T_ey6uqOHCIm2-19" value="" style="endArrow=classic;html=1;rounded=0;exitX=0.944;exitY=0.285;exitDx=0;exitDy=0;exitPerimeter=0;entryX=-0.007;entryY=0.12;entryDx=0;entryDy=0;entryPerimeter=0;" edge="1" parent="1" target="EFbFeK8T_ey6uqOHCIm2-3">
          <mxGeometry relative="1" as="geometry">
            <mxPoint x="462.8399999999999" y="251.35000000000002" as="sourcePoint" />
            <mxPoint x="662.42" y="252.16" as="targetPoint" />
          </mxGeometry>
        </mxCell>
        <mxCell id="EFbFeK8T_ey6uqOHCIm2-20" value="&lt;font style=&quot;font-size: 12px;&quot;&gt;Request Detail&lt;/font&gt;" style="edgeLabel;resizable=0;html=1;align=center;verticalAlign=middle;" connectable="0" vertex="1" parent="EFbFeK8T_ey6uqOHCIm2-19">
          <mxGeometry relative="1" as="geometry" />
        </mxCell>
        <mxCell id="EFbFeK8T_ey6uqOHCIm2-23" value="" style="endArrow=classic;html=1;rounded=0;exitX=0;exitY=0.75;exitDx=0;exitDy=0;entryX=0.958;entryY=0.718;entryDx=0;entryDy=0;entryPerimeter=0;" edge="1" parent="1" source="EFbFeK8T_ey6uqOHCIm2-3" target="EFbFeK8T_ey6uqOHCIm2-36">
          <mxGeometry relative="1" as="geometry">
            <mxPoint x="660" y="430" as="sourcePoint" />
            <mxPoint x="470" y="290" as="targetPoint" />
            <Array as="points">
              <mxPoint x="580" y="290" />
              <mxPoint x="540" y="290" />
            </Array>
          </mxGeometry>
        </mxCell>
        <mxCell id="EFbFeK8T_ey6uqOHCIm2-24" value="&lt;font style=&quot;font-size: 12px;&quot;&gt;Confirmation&lt;/font&gt;" style="edgeLabel;resizable=0;html=1;align=center;verticalAlign=middle;" connectable="0" vertex="1" parent="EFbFeK8T_ey6uqOHCIm2-23">
          <mxGeometry relative="1" as="geometry" />
        </mxCell>
        <mxCell id="EFbFeK8T_ey6uqOHCIm2-27" value="" style="endArrow=classic;html=1;rounded=0;exitX=0.025;exitY=0.664;exitDx=0;exitDy=0;exitPerimeter=0;entryX=1;entryY=0.8;entryDx=0;entryDy=0;entryPerimeter=0;" edge="1" parent="1" target="EFbFeK8T_ey6uqOHCIm2-2">
          <mxGeometry relative="1" as="geometry">
            <mxPoint x="361.75" y="293.03999999999996" as="sourcePoint" />
            <mxPoint x="200" y="293" as="targetPoint" />
            <Array as="points">
              <mxPoint x="290" y="293" />
            </Array>
          </mxGeometry>
        </mxCell>
        <mxCell id="EFbFeK8T_ey6uqOHCIm2-28" value="&lt;font style=&quot;font-size: 12px;&quot;&gt;Response Of Dops&lt;/font&gt;" style="edgeLabel;resizable=0;html=1;align=center;verticalAlign=middle;" connectable="0" vertex="1" parent="EFbFeK8T_ey6uqOHCIm2-27">
          <mxGeometry relative="1" as="geometry" />
        </mxCell>
        <mxCell id="EFbFeK8T_ey6uqOHCIm2-29" value="" style="endArrow=classic;html=1;rounded=0;exitX=0.997;exitY=0.12;exitDx=0;exitDy=0;exitPerimeter=0;entryX=0.013;entryY=0.285;entryDx=0;entryDy=0;entryPerimeter=0;" edge="1" parent="1" source="EFbFeK8T_ey6uqOHCIm2-2">
          <mxGeometry relative="1" as="geometry">
            <mxPoint x="180" y="250" as="sourcePoint" />
            <mxPoint x="360.43000000000006" y="251.35000000000002" as="targetPoint" />
          </mxGeometry>
        </mxCell>
        <mxCell id="EFbFeK8T_ey6uqOHCIm2-30" value="&lt;font style=&quot;font-size: 12px;&quot;&gt;Request For Dops&lt;/font&gt;" style="edgeLabel;resizable=0;html=1;align=center;verticalAlign=middle;" connectable="0" vertex="1" parent="EFbFeK8T_ey6uqOHCIm2-29">
          <mxGeometry relative="1" as="geometry">
            <mxPoint y="-2" as="offset" />
          </mxGeometry>
        </mxCell>
        <mxCell id="EFbFeK8T_ey6uqOHCIm2-36" value="0.0&lt;br&gt;&lt;br&gt;&lt;br&gt;&lt;font style=&quot;font-size: 14px;&quot;&gt;Diamond Dops&lt;br&gt;Online Selling&amp;nbsp;&lt;br&gt;System&lt;/font&gt;" style="ellipse;whiteSpace=wrap;html=1;aspect=fixed;" vertex="1" parent="1">
          <mxGeometry x="359" y="210" width="110" height="110" as="geometry" />
        </mxCell>
        <mxCell id="EFbFeK8T_ey6uqOHCIm2-39" value="" style="line;strokeWidth=2;html=1;" vertex="1" parent="1">
          <mxGeometry x="364" y="235" width="100" height="10" as="geometry" />
        </mxCell>
      </root>
    </mxGraphModel>
  </diagram>
</mxfile>
